<svg xmlns="http://www.w3.org/2000/svg" viewBox="0 0 500 500"><g id="freepik--Floor--inject-129"><path id="freepik--floor--inject-129" d="M96.58,277.15c-84.18,48.6-84.17,127.39,0,176s220.65,48.6,304.83,0,84.17-127.39,0-176S180.76,228.55,96.58,277.15Z" style="fill:#fafafa"></path></g><g id="freepik--Shadows--inject-129"><polygon id="freepik--Shadow--inject-129" points="40.4 327.49 100.12 361.98 163.2 325.61 103.32 291.21 40.4 327.49" style="fill:#e0e0e0"></polygon><polygon id="freepik--shadow--inject-129" points="10.02 368.92 55.26 395.05 103.05 367.49 57.69 341.43 10.02 368.92" style="fill:#e0e0e0"></polygon><ellipse id="freepik--shadow--inject-129" cx="166.57" cy="402" rx="77.39" ry="44.68" style="fill:#e0e0e0"></ellipse><ellipse id="freepik--shadow--inject-129" cx="306.42" cy="425.03" rx="59.52" ry="34.36" style="fill:#e0e0e0"></ellipse><polygon id="freepik--shadow--inject-129" points="451.82 369.37 395.42 401.94 335.83 367.59 392.39 335.1 451.82 369.37" style="fill:#e0e0e0"></polygon><polygon id="freepik--shadow--inject-129" points="488.5 403.23 445.77 427.91 400.64 401.88 443.48 377.27 488.5 403.23" style="fill:#e0e0e0"></polygon></g><g id="freepik--boxes-2--inject-129"><g id="freepik--Box--inject-129"><polygon points="345.87 313.75 392.42 286.87 441.81 315.46 395.27 342.33 345.87 313.75" style="fill:#f5f5f5"></polygon><polygon points="395.27 396.72 345.87 368.13 345.87 313.75 395.27 342.33 395.27 396.72" style="fill:#ebebeb"></polygon><polygon points="395.27 396.72 441.81 369.84 441.81 315.46 395.27 342.33 395.27 396.72" style="fill:#e0e0e0"></polygon><polygon points="422.4 326.66 372.97 298.09 365.22 302.58 414.66 331.14 422.4 326.66" style="fill:#fafafa"></polygon><polygon points="422.4 326.66 422.4 335.62 421.33 334.99 419.88 337.08 418.98 336.31 417.4 338.51 416.39 337.7 414.66 340.1 414.66 331.14 422.4 326.66" style="fill:#e6e6e6"></polygon></g><g id="freepik--box--inject-129"><polygon points="353.28 282.23 392.64 259.51 434.4 283.68 395.05 306.41 353.28 282.23" style="fill:#f5f5f5"></polygon><polygon points="395.05 336.7 353.28 312.53 353.28 282.23 395.05 306.41 395.05 336.7" style="fill:#ebebeb"></polygon><polygon points="395.05 336.7 434.4 313.98 434.4 283.68 395.05 306.41 395.05 336.7" style="fill:#e0e0e0"></polygon><polygon points="417.99 293.15 376.19 269 369.64 272.79 411.45 296.94 417.99 293.15" style="fill:#fafafa"></polygon><polygon points="417.99 293.15 417.99 300.73 417.08 300.19 415.86 301.96 415.1 301.31 413.76 303.18 412.9 302.49 411.45 304.51 411.45 296.94 417.99 293.15" style="fill:#e6e6e6"></polygon></g><g id="freepik--box--inject-129"><polygon points="410.88 351.9 443.99 332.79 479.12 353.12 446.01 372.24 410.88 351.9" style="fill:#f5f5f5"></polygon><polygon points="446.01 422.73 410.88 402.4 410.88 351.9 446.01 372.24 446.01 422.73" style="fill:#ebebeb"></polygon><polygon points="446.01 422.73 479.12 403.62 479.12 353.12 446.01 372.24 446.01 422.73" style="fill:#e0e0e0"></polygon><polygon points="465.32 361.09 430.15 340.77 424.64 343.96 459.81 364.27 465.32 361.09" style="fill:#fafafa"></polygon><polygon points="465.32 361.09 465.32 367.46 464.55 367.01 463.52 368.5 462.88 367.95 461.76 369.52 461.03 368.94 459.81 370.64 459.81 364.27 465.32 361.09" style="fill:#e6e6e6"></polygon></g></g><g id="freepik--boxes-1--inject-129"><g id="freepik--box--inject-129"><polygon points="152.57 268.6 103.29 240.15 50.99 270.42 100.27 298.87 152.57 268.6" style="fill:#f5f5f5"></polygon><polygon points="100.28 356.45 152.57 326.18 152.57 268.6 100.28 298.87 100.28 356.45" style="fill:#ebebeb"></polygon><polygon points="100.28 356.45 50.99 328 50.99 270.42 100.27 298.87 100.28 356.45" style="fill:#e0e0e0"></polygon><polygon points="71.54 282.27 123.88 252.03 132.09 256.78 79.74 287.01 71.54 282.27" style="fill:#fafafa"></polygon><polygon points="71.54 282.27 71.54 291.76 72.68 291.09 74.21 293.31 75.16 292.49 76.84 294.82 77.92 293.97 79.74 296.5 79.74 287.01 71.54 282.27" style="fill:#e6e6e6"></polygon></g><g id="freepik--box--inject-129"><polygon points="144.73 235.24 103.06 211.18 58.84 236.77 100.51 260.83 144.73 235.24" style="fill:#f5f5f5"></polygon><polygon points="100.51 292.91 144.73 267.31 144.73 235.24 100.51 260.83 100.51 292.91" style="fill:#ebebeb"></polygon><polygon points="100.51 292.91 58.84 268.85 58.84 236.77 100.51 260.83 100.51 292.91" style="fill:#e0e0e0"></polygon><polygon points="76.21 246.8 120.47 221.22 127.41 225.24 83.14 250.81 76.21 246.8" style="fill:#fafafa"></polygon><polygon points="76.21 246.8 76.21 254.82 77.17 254.25 78.47 256.13 79.27 255.44 80.69 257.41 81.6 256.69 83.14 258.83 83.14 250.81 76.21 246.8" style="fill:#e6e6e6"></polygon></g><g id="freepik--box--inject-129"><polygon points="92.2 331.69 57.15 311.45 19.95 332.98 55.01 353.22 92.2 331.69" style="fill:#f5f5f5"></polygon><polygon points="55.01 389.57 92.2 368.04 92.2 331.69 55.01 353.22 55.01 389.57" style="fill:#ebebeb"></polygon><polygon points="55.01 389.57 19.95 369.33 19.95 332.98 55.01 353.22 55.01 389.57" style="fill:#e0e0e0"></polygon><polygon points="34.57 341.41 71.8 319.9 77.63 323.28 40.4 344.78 34.57 341.41" style="fill:#fafafa"></polygon><polygon points="34.57 341.41 34.57 348.16 35.38 347.68 36.47 349.26 37.15 348.68 38.34 350.34 39.1 349.73 40.4 351.53 40.4 344.78 34.57 341.41" style="fill:#e6e6e6"></polygon></g></g><g id="freepik--Table--inject-129"><g id="freepik--table--inject-129"><g id="freepik--table--inject-129"><path d="M329.41,404.89c-12.7-7.33-33.28-7.33-46,0-6.35,3.66-9.52,8.46-9.51,13.27,0,.49,0,3.48,0,4,.1,4.73,3.26,9.43,9.51,13,12.7,7.33,33.28,7.33,46,0,6.27-3.62,9.44-8.36,9.51-13.11,0-.55,0-3.54,0-4.06C338.89,413.3,335.72,408.53,329.41,404.89Z" style="fill:#37474f"></path><path d="M283.43,431.43c-12.7-7.33-12.7-19.21,0-26.54s33.28-7.33,46,0,12.69,19.21,0,26.54S296.13,438.76,283.43,431.43Z" style="fill:#455a64"></path><path d="M309.18,418.76h0V248.92h-5.55V418.76h0a1.28,1.28,0,0,0,.79,1.27,4.32,4.32,0,0,0,3.93,0A1.29,1.29,0,0,0,309.18,418.76Z" style="fill:#37474f"></path><path d="M256,228.55c27.89-16.11,73.11-16.11,101,0,13.94,8,20.91,22.53,20.9,33.08v2.05c0,10.55-7,21.11-20.9,29.16-27.89,16.1-73.11,16.1-101,0-13.95-8-20.91-18.61-20.9-29.16v-2.05C235,251.08,242,236.6,256,228.55Z" style="fill:#BA68C8"></path><path d="M256,228.55c27.89-16.11,73.11-16.11,101,0,13.94,8,20.91,22.53,20.9,33.08v2.05c0,10.55-7,21.11-20.9,29.16-27.89,16.1-73.11,16.1-101,0-13.95-8-20.91-18.61-20.9-29.16v-2.05C235,251.08,242,236.6,256,228.55Z" style="opacity:0.2"></path><path d="M255.89,223.19c27.89-16.1,73.11-16.1,101,0,13.94,8.05,20.9,18.61,20.9,29.16v3.51c0,10.56-7,25-20.9,33.09-27.89,16.1-73.11,16.1-101,0C241.94,280.9,235,265,235,254.4v-2.05C235,241.8,241.94,231.24,255.89,223.19Z" style="fill:#37474f"></path><path d="M356.89,281.5c27.89-16.1,27.89-42.2,0-58.31s-73.11-16.1-101,0-27.89,42.21,0,58.31S329,297.61,356.89,281.5Z" style="fill:#455a64"></path></g></g></g><g id="freepik--mistery-box--inject-129"><g id="freepik--mister-box--inject-129"><polygon points="306.42 208.89 238.1 248.34 306.43 287.78 374.74 248.34 306.42 208.89" style="fill:#37474f"></polygon><g id="freepik--box--inject-129"><g id="freepik--box--inject-129"><g id="freepik--box--inject-129"><g id="freepik--front-box--inject-129"><polygon points="248.22 181.13 248.21 248.34 306.42 281.92 306.42 214.73 248.22 181.13" style="fill:#BA68C8"></polygon><polygon points="306.42 214.73 306.42 281.92 364.62 248.34 364.62 181.13 306.42 214.73" style="fill:#BA68C8"></polygon><polygon points="306.42 214.73 306.42 281.92 364.62 248.34 364.62 181.13 306.42 214.73" style="fill:#fff;opacity:0.25"></polygon><polygon points="306.42 214.73 307.33 280.26 340.93 262.01 306.42 281.92 306.42 214.73" style="fill:#fff;opacity:0.4"></polygon></g></g><polygon points="306.42 147.53 248.22 181.13 306.42 214.73 364.62 181.13 306.42 147.53" style="fill:#BA68C8"></polygon><polygon points="306.42 147.53 248.22 181.13 306.42 214.73 364.62 181.13 306.42 147.53" style="fill:#fff;opacity:0.4"></polygon><polygon points="248.22 181.13 306.23 213.01 364.62 181.13 306.42 214.73 248.22 181.13" style="fill:#fff;opacity:0.1"></polygon><polygon points="273.16 166.73 331.36 200.33 339.68 195.53 281.48 161.93 273.16 166.73" style="fill:#BA68C8"></polygon><polygon points="339.68 195.53 339.68 206.1 338.67 205.52 337.63 207.33 336.58 206.71 335.54 208.53 334.5 207.92 333.45 209.72 332.41 209.13 331.36 210.93 331.36 200.34 339.68 195.53" style="fill:#BA68C8"></polygon><polygon points="339.68 195.53 339.68 206.1 338.67 205.52 337.63 207.33 336.58 206.71 335.54 208.53 334.5 207.92 333.45 209.72 332.41 209.13 331.36 210.93 331.36 200.34 339.68 195.53" style="opacity:0.25"></polygon></g></g><path d="M326.08,224.12c.58-1,1.19-2,1.85-2.91a28.48,28.48,0,0,1,2.15-2.74,24.22,24.22,0,0,1,2.51-2.45,19.34,19.34,0,0,1,2.9-2,10.8,10.8,0,0,1,3.89-1.47,4.55,4.55,0,0,1,3,.51,4.72,4.72,0,0,1,1.92,2.37,11,11,0,0,1,.68,4.16,18.62,18.62,0,0,1-.51,4.48,24.79,24.79,0,0,1-1.29,3.82,26.68,26.68,0,0,1-1.71,3.24l-1.76,2.8c-.56.87-1,1.7-1.45,2.47a7.07,7.07,0,0,0-.75,2.23l-.6,4.9-4.51,2.6-.45-4.89a6.46,6.46,0,0,1,.29-2.82,15.54,15.54,0,0,1,1.21-2.77c.51-.92,1.08-1.85,1.71-2.8s1.22-1.91,1.77-2.9a20,20,0,0,0,1.38-3.06,9.84,9.84,0,0,0,.56-3.29c0-1.4-.36-2.31-1.08-2.72s-1.69-.27-2.88.42a10.63,10.63,0,0,0-2.21,1.66,19.23,19.23,0,0,0-1.54,1.73c-.43.55-.79,1-1.09,1.48a2.94,2.94,0,0,1-.86.87c-.61.35-1.06.26-1.36-.26Zm4.47,31.54a8.68,8.68,0,0,1,.29-2.16,10.09,10.09,0,0,1,.83-2.1,9.45,9.45,0,0,1,1.23-1.79,6,6,0,0,1,1.54-1.29,3.23,3.23,0,0,1,1.52-.48,1.94,1.94,0,0,1,1.24.37,2.46,2.46,0,0,1,.83,1.14,5,5,0,0,1,.3,1.82,8.24,8.24,0,0,1-.3,2.18,10.15,10.15,0,0,1-.83,2.08,8.7,8.7,0,0,1-1.24,1.78,6.1,6.1,0,0,1-1.52,1.26,3.33,3.33,0,0,1-1.54.51,1.87,1.87,0,0,1-1.23-.36,2.48,2.48,0,0,1-.83-1.13A5.16,5.16,0,0,1,330.55,255.66Z" style="fill:#fff"></path><path d="M267.88,213.23a8.22,8.22,0,0,1,1.85-.78,7.09,7.09,0,0,1,2.15-.26,9.19,9.19,0,0,1,2.5.45,14.09,14.09,0,0,1,2.9,1.3,17.86,17.86,0,0,1,3.89,3,19.84,19.84,0,0,1,3,3.95,20.62,20.62,0,0,1,1.92,4.59,18.4,18.4,0,0,1,.68,4.94,11.83,11.83,0,0,1-.52,3.89,6.67,6.67,0,0,1-1.29,2.33,5.09,5.09,0,0,1-1.7,1.27c-.62.28-1.21.54-1.77.76a6.37,6.37,0,0,0-1.44.81,2,2,0,0,0-.75,1.36l-.6,4.21-4.51-2.61-.45-5.41a4.51,4.51,0,0,1,.28-2.49,3.61,3.61,0,0,1,1.22-1.37,8,8,0,0,1,1.71-.83,8.66,8.66,0,0,0,1.76-.85,4.53,4.53,0,0,0,1.39-1.46,5.27,5.27,0,0,0,.56-2.66,7.67,7.67,0,0,0-1.09-4,7.76,7.76,0,0,0-2.87-2.9,6.64,6.64,0,0,0-2.21-.9,5.42,5.42,0,0,0-1.54,0,9.44,9.44,0,0,0-1.1.21,1.08,1.08,0,0,1-.86-.12,3.27,3.27,0,0,1-1.36-1.83Zm4.46,36.69a5,5,0,0,1,.3-1.82,2.46,2.46,0,0,1,.83-1.14,1.9,1.9,0,0,1,1.22-.37,3.11,3.11,0,0,1,1.54.48,6.25,6.25,0,0,1,1.53,1.29,9.36,9.36,0,0,1,1.24,1.79,9.54,9.54,0,0,1,.82,2.1,8.26,8.26,0,0,1,.3,2.16,4.94,4.94,0,0,1-.3,1.83,2.43,2.43,0,0,1-.82,1.14,1.87,1.87,0,0,1-1.24.34,3.37,3.37,0,0,1-1.53-.49,6.76,6.76,0,0,1-1.54-1.27,9,9,0,0,1-1.22-1.78,10.15,10.15,0,0,1-.83-2.08A8.24,8.24,0,0,1,272.34,249.92Z" style="fill:#fff"></path></g></g><g id="freepik--Symbol--inject-129"><g id="freepik--question-mark--inject-129"><path d="M315.83,118.16a4.72,4.72,0,0,0-1.55-2.16l-.31-.2c-.59-.34-8.46-4.89-8.59-5a3.72,3.72,0,0,0-2-.46,6,6,0,0,0-2.88.9,11.68,11.68,0,0,0-2.89,2.43,17.5,17.5,0,0,0-2.32,3.37,18.54,18.54,0,0,0-1.55,4,15.52,15.52,0,0,0-.56,4.08,9.24,9.24,0,0,0,.56,3.45,4.66,4.66,0,0,0,1.55,2.13l.32.21,8.51,4.91a3.61,3.61,0,0,0,2,.48,6.36,6.36,0,0,0,2.9-1,11.92,11.92,0,0,0,2.88-2.38,16.79,16.79,0,0,0,2.34-3.36,19.28,19.28,0,0,0,1.55-3.92,15.83,15.83,0,0,0,.56-4.11A9.54,9.54,0,0,0,315.83,118.16Z" style="fill:#455a64"></path><path d="M293.76,128.57a4.66,4.66,0,0,0,1.55,2.13l.32.21,8.51,4.91a3.61,3.61,0,0,0,2,.48h0V125.81l-3.86.16L293.76,121a15.52,15.52,0,0,0-.56,4.08A9.24,9.24,0,0,0,293.76,128.57Z" style="fill:#37474f"></path><path d="M301.73,130.05a15.55,15.55,0,0,1,.57-4.08,18.54,18.54,0,0,1,1.55-4,17.92,17.92,0,0,1,2.31-3.37,11.73,11.73,0,0,1,2.9-2.43,6.17,6.17,0,0,1,2.88-.91,3.72,3.72,0,0,1,2.34.69,4.72,4.72,0,0,1,1.55,2.16,9.54,9.54,0,0,1,.56,3.42,15.83,15.83,0,0,1-.56,4.11,19.28,19.28,0,0,1-1.55,3.92,16.79,16.79,0,0,1-2.34,3.36,11.92,11.92,0,0,1-2.88,2.38,6.36,6.36,0,0,1-2.9,1,3.6,3.6,0,0,1-2.31-.67,4.66,4.66,0,0,1-1.55-2.13A9.22,9.22,0,0,1,301.73,130.05Z" style="fill:#fafafa"></path><path d="M312.06,115.81a3.16,3.16,0,0,1,1.92.6,4.15,4.15,0,0,1,1.38,1.93,9.05,9.05,0,0,1,.53,3.24,15.25,15.25,0,0,1-.54,4,18.47,18.47,0,0,1-1.52,3.81,15.77,15.77,0,0,1-2.26,3.26,11.12,11.12,0,0,1-2.76,2.28,5.69,5.69,0,0,1-2.66.89H306a3,3,0,0,1-1.86-.58,4.21,4.21,0,0,1-1.38-1.91,8.83,8.83,0,0,1-.53-3.26,15.4,15.4,0,0,1,.55-4,18.26,18.26,0,0,1,1.51-3.84,17.12,17.12,0,0,1,2.25-3.28,10.7,10.7,0,0,1,2.77-2.32,5.57,5.57,0,0,1,2.64-.85h.11m0-.5h-.12a6.17,6.17,0,0,0-2.88.91,11.73,11.73,0,0,0-2.9,2.43,17.92,17.92,0,0,0-2.31,3.37,18.54,18.54,0,0,0-1.55,4,15.55,15.55,0,0,0-.57,4.08,9.22,9.22,0,0,0,.57,3.45,4.66,4.66,0,0,0,1.55,2.13,3.55,3.55,0,0,0,2.15.67h.16a6.36,6.36,0,0,0,2.9-1,11.92,11.92,0,0,0,2.88-2.38,16.79,16.79,0,0,0,2.34-3.36,19.28,19.28,0,0,0,1.55-3.92,15.83,15.83,0,0,0,.56-4.11,9.54,9.54,0,0,0-.56-3.42,4.72,4.72,0,0,0-1.55-2.16,3.73,3.73,0,0,0-2.22-.69Z" style="fill:#455a64"></path><path d="M327.61,56A8.89,8.89,0,0,0,324,51.52c-1.44-.85-7.12-4.09-8.53-4.92a8.58,8.58,0,0,0-5.63-1,19.78,19.78,0,0,0-7.32,2.76A36.7,36.7,0,0,0,297,52.25a46.84,46.84,0,0,0-4.72,4.62A54.6,54.6,0,0,0,288.27,62c-1.24,1.79-2.39,3.62-3.48,5.49l3.28,4.93a1.86,1.86,0,0,0,.66.72L297.19,78a.23.23,0,0,0,.1,0,1.23,1.23,0,0,0,.64.18,2.56,2.56,0,0,0,1.24-.4,5.63,5.63,0,0,0,1.62-1.65c.56-.81,1.27-1.74,2.06-2.79a38.57,38.57,0,0,1,2.9-3.26c.32-.31.66-.63,1-.93s.46-.37.69-.57c.41-.31.85-.63,1.32-.92s.74-.48,1.13-.7c2.24-1.29,4.05-1.57,5.42-.8s2,2.48,2,5.12a18.49,18.49,0,0,1-1.05,6.21,39,39,0,0,1-2.62,5.78c-1,1.85-2.14,3.67-3.32,5.44s-2.26,3.55-3.22,5.28a30,30,0,0,0-2.28,5.22,12.17,12.17,0,0,0-.55,5.31l.85,9.22,8.51-4.9,1.11-9.23a12.91,12.91,0,0,1,1.42-4.19c.77-1.47,1.68-3,2.72-4.66s2.16-3.41,3.33-5.28a48.22,48.22,0,0,0,3.21-6.12,44,44,0,0,0,2.44-7.17,35.75,35.75,0,0,0,1-8.44A20.69,20.69,0,0,0,327.61,56Z" style="fill:#455a64"></path><path d="M317.38,71.37a18.49,18.49,0,0,1-1.05,6.21,39,39,0,0,1-2.62,5.78c-1,1.85-2.14,3.67-3.32,5.44s-2.26,3.55-3.22,5.28a30,30,0,0,0-2.28,5.22,12.17,12.17,0,0,0-.55,5.31l.85,9.22-8.54-4.93-.85-9.21a12.33,12.33,0,0,1,.54-5.32,30.13,30.13,0,0,1,2.29-5.23c1-1.73,2-3.47,3.22-5.26s2.3-3.6,3.33-5.46a39.73,39.73,0,0,0,2.61-5.76,19,19,0,0,0,1-4.91c.36-.24.74-.48,1.13-.7,2.24-1.29,4.05-1.57,5.42-.8S317.38,68.73,317.38,71.37Z" style="fill:#37474f"></path><path d="M288.73,73.15l8.55,4.94-3.95-5.66-8.54-4.93,3.28,4.94A1.83,1.83,0,0,0,288.73,73.15Z" style="fill:#37474f"></path><path d="M293.33,72.43Q295,69.64,296.81,67a54.38,54.38,0,0,1,4.05-5.16,45.7,45.7,0,0,1,4.72-4.61A36.19,36.19,0,0,1,311,53.34a20.34,20.34,0,0,1,7.33-2.77,8.69,8.69,0,0,1,5.62,1A8.93,8.93,0,0,1,327.61,56a20.67,20.67,0,0,1,1.28,7.83,34.6,34.6,0,0,1-1,8.44,43.32,43.32,0,0,1-2.43,7.19,48.77,48.77,0,0,1-3.21,6.11q-1.75,2.81-3.33,5.28C317.9,92.49,317,94,316.23,95.5a12.82,12.82,0,0,0-1.41,4.21l-1.13,9.22-8.49,4.9-.86-9.21a12.35,12.35,0,0,1,.54-5.32,29.05,29.05,0,0,1,2.3-5.22c.95-1.73,2-3.49,3.21-5.27s2.29-3.6,3.33-5.46a38.09,38.09,0,0,0,2.6-5.76,18.3,18.3,0,0,0,1.06-6.21q0-4-2-5.12t-5.42.79a19.56,19.56,0,0,0-4.16,3.12,35.35,35.35,0,0,0-2.9,3.26q-1.22,1.57-2.07,2.79a5.51,5.51,0,0,1-1.62,1.65c-1.14.66-2,.49-2.56-.5Z" style="fill:#fafafa"></path><path d="M319.86,51h0a7.43,7.43,0,0,1,3.87,1,8.43,8.43,0,0,1,3.42,4.23,20.38,20.38,0,0,1,1.24,7.64,34.68,34.68,0,0,1-.95,8.32,45.25,45.25,0,0,1-2.4,7.11,51.09,51.09,0,0,1-3.18,6c-1.17,1.87-2.28,3.64-3.33,5.28s-2,3.21-2.74,4.69a13.4,13.4,0,0,0-1.47,4.38l-1.09,9L305.62,113l-.78-8.45a11.86,11.86,0,0,1,.52-5.11,29,29,0,0,1,2.25-5.13c.94-1.69,2-3.45,3.2-5.24s2.31-3.63,3.34-5.49a38.61,38.61,0,0,0,2.64-5.83,19.05,19.05,0,0,0,1.09-6.38c0-2.82-.77-4.69-2.3-5.56a4,4,0,0,0-1.95-.49,8.13,8.13,0,0,0-4,1.29,20.25,20.25,0,0,0-4.26,3.2,35.91,35.91,0,0,0-3,3.31c-.8,1-1.5,2-2.08,2.8a5.27,5.27,0,0,1-1.46,1.51,2.07,2.07,0,0,1-1,.32c-.23,0-.58-.06-.92-.67l-3.11-4.67c1-1.78,2.15-3.52,3.3-5.19a55.56,55.56,0,0,1,4-5.11,46.78,46.78,0,0,1,4.67-4.56,36.49,36.49,0,0,1,5.39-3.79,19.86,19.86,0,0,1,7.14-2.7,12,12,0,0,1,1.43-.1m0-.5a12.86,12.86,0,0,0-1.49.1A20.34,20.34,0,0,0,311,53.34a36.19,36.19,0,0,0-5.46,3.84,45.7,45.7,0,0,0-4.72,4.61A54.38,54.38,0,0,0,296.81,67q-1.86,2.68-3.48,5.48l3.28,4.94a1.51,1.51,0,0,0,1.34.89,2.5,2.5,0,0,0,1.22-.39,5.51,5.51,0,0,0,1.62-1.65q.85-1.22,2.07-2.79a35.35,35.35,0,0,1,2.9-3.26,19.56,19.56,0,0,1,4.16-3.12,7.7,7.7,0,0,1,3.71-1.22,3.39,3.39,0,0,1,1.71.43q2,1.15,2,5.12a18.3,18.3,0,0,1-1.06,6.21,38.09,38.09,0,0,1-2.6,5.76q-1.56,2.79-3.33,5.46c-1.18,1.78-2.26,3.54-3.21,5.27a29.05,29.05,0,0,0-2.3,5.22,12.35,12.35,0,0,0-.54,5.32l.86,9.21,8.49-4.9,1.13-9.22a12.82,12.82,0,0,1,1.41-4.21c.77-1.46,1.67-3,2.72-4.65s2.16-3.41,3.33-5.28a48.77,48.77,0,0,0,3.21-6.11,43.32,43.32,0,0,0,2.43-7.19,34.6,34.6,0,0,0,1-8.44A20.67,20.67,0,0,0,327.61,56,8.93,8.93,0,0,0,324,51.52a8,8,0,0,0-4.13-1.05Z" style="fill:#455a64"></path></g></g><g id="freepik--Character--inject-129"><g id="freepik--character--inject-129"><g id="freepik--Bottom--inject-129"><path d="M115.13,323.22c-1.12,20.84.25,34.69-1.21,48.89-.31,3-3.26,24.86-2.79,31.14.71,9.43,14.53,9.51,16,4.06s6.59-30.28,6.5-33.72c4-15.93,13.69-49.83,13.69-49.83Z" style="fill:#b16668"></path><path d="M207,372.43c-2.36-2.75-4.44-6.2-4.28-13.06.17-7.07.83-19.18,1.45-29.85l-28.74-.47c2.91,15.52,4.91,26.9,5.91,31.89,0,.11,0,1.54-.05,2.27-.33,5.85,8.49,8.3,13.71,12.5a102.23,102.23,0,0,0,14.21,9.9c3.85,2.1,11.89,2.71,13,.36C215.86,380.82,211.91,378.19,207,372.43Z" style="fill:#b16668"></path><path d="M233,393.14c.34,0,.64,3.59-1.31,5-2.24,1.62-8.68,4.14-16.9,2.67s-12.56-4.12-15.71-6.92-7.57-6.75-11.27-7.74c-3.44-.91-7.92-2.88-9-4s-.62-5.58-.62-5.58Z" style="fill:#263238"></path><path d="M181.08,359.66s-.61-.15-.89.89c-.33,1.23.78,4.07-.52,7.13-1.16,2.72-2,7.56-1.4,10.48.51,2.31,6.68,4.53,10.23,6a46.25,46.25,0,0,1,11.32,7.64c3.7,3.24,11.7,6.73,17.1,7.1,8.23.56,13.69-1.26,15.51-4,1.46-2.17,1-4.39-.74-6.28a20.8,20.8,0,0,0-5-3.69c-2.42-1.41-4.85-2.74-7.21-4.24q-4.64-3-9.09-6.16a16.13,16.13,0,0,1-3.18-2.75c-1.94-2.38-2.29-5.56-3-8.5a2.72,2.72,0,0,0-.5-1.2,3,3,0,0,0-1.92-.77,25.26,25.26,0,0,0-7.26.32c-1.86.33-3.93,1-4.68,2.64s0,3.37-.65,4.91c-.11.26-.3.54-.59.58-.92.14-1.36-2.49-1.75-3.16-.79-1.34-1.35-2.82-2.74-3.75a13.58,13.58,0,0,1-2.39-1.42A3.47,3.47,0,0,1,181.08,359.66Z" style="fill:#37474f"></path><path d="M224.25,383.3c-12,.35-15,8.55-15.87,13.57a25.56,25.56,0,0,0,8.54,2.07c8.23.52,14.08-1.68,16-4.88C235.06,390.32,232.47,387.26,224.25,383.3Z" style="fill:#fafafa"></path><path d="M208.89,383.81a.6.6,0,0,1-.36-.14.54.54,0,0,1,0-.78,14.59,14.59,0,0,1,11-3.43.56.56,0,0,1,.48.63.59.59,0,0,1-.67.46,13.49,13.49,0,0,0-10,3.08A.58.58,0,0,1,208.89,383.81Z" style="fill:#f0f0f0"></path><path d="M203.92,380.7a.56.56,0,0,1-.36-.14.54.54,0,0,1,0-.78,14.54,14.54,0,0,1,11-3.43.55.55,0,0,1,.48.64.57.57,0,0,1-.67.45,13.44,13.44,0,0,0-10,3.09A.62.62,0,0,1,203.92,380.7Z" style="fill:#f0f0f0"></path><path d="M199.36,377.22a.61.61,0,0,1-.36-.15.53.53,0,0,1,0-.78,14.54,14.54,0,0,1,11-3.42.55.55,0,0,1,.48.63.57.57,0,0,1-.67.45,13.48,13.48,0,0,0-10,3.09A.69.69,0,0,1,199.36,377.22Z" style="fill:#f0f0f0"></path><path d="M194.9,373.73a.54.54,0,0,1-.36-.14.53.53,0,0,1,0-.77c2.46-2.6,7.73-4.12,12-3.43a.55.55,0,0,1,.48.63.57.57,0,0,1-.67.45c-3.87-.61-8.79.77-11,3.08A.58.58,0,0,1,194.9,373.73Z" style="fill:#f0f0f0"></path><path d="M131.18,411.92c-.47,5.44-1.52,9.05-3.82,12.21s-6.55,4.09-10.81,3.09-9.71-3.61-10.85-8.34-1.79-8-.72-13Z" style="fill:#263238"></path><path d="M113.92,372.11c-1.77.09-2.43,7.41-3.58,14.72-1.24,7.85-4,11.05-5.11,17.48-1.26,7.35.09,10.66,3,15.16s13.4,9,18.73,2.76c4.35-5.13,4.63-10.89,4.38-18.25-.26-7.61,1.29-12.61,1.76-18.38.45-5.5,2-11.37.48-12-.13.8-.26,1.83-.4,2.62a6.76,6.76,0,0,1-1,3.1c-.27.36-1.09.75-1.24.08a3.71,3.71,0,0,1,0-1.37c.3-2-.88-2.21-1.52-2.38-1.38-.37-6.85-1-8.17-1.14-1-.08-2-.12-3.07-.13-.6,0-1.2,0-1.8,0s-1.11,0-1.37.49a2,2,0,0,0-.17.68l-.29,2.21a.82.82,0,0,1-.3.62.53.53,0,0,1-.58-.07c-.41-.34-.19-1.21-.17-1.66l.09-1.41C113.64,374.79,113.87,372.58,113.92,372.11Z" style="fill:#37474f"></path><path d="M104.66,408.57c-.39,4.57.81,7.72,3.09,11.25,2.9,4.5,14.25,9.07,19.58,2.78,2.66-3.13,3.42-6.87,3.85-10.69C128.15,406.94,109.66,404.47,104.66,408.57Z" style="fill:#fafafa"></path><path d="M127.48,403.84a.9.9,0,0,1-.22-.06c-.07,0-8.18-3.08-16.16-1.62a.65.65,0,0,1-.77-.44.57.57,0,0,1,.5-.67c8.44-1.53,16.71,1.59,17,1.72a.54.54,0,0,1,.29.76A.66.66,0,0,1,127.48,403.84Z" style="fill:#f0f0f0"></path><path d="M111.6,396.68a.68.68,0,0,1-.55-.39.55.55,0,0,1,.43-.71c8-2.19,16.67,1.43,17,1.59a.52.52,0,0,1,.26.77.72.72,0,0,1-.88.22c-.08,0-8.57-3.54-16-1.51A.67.67,0,0,1,111.6,396.68Z" style="fill:#f0f0f0"></path><path d="M112,391.51a.66.66,0,0,1-.55-.39.55.55,0,0,1,.41-.71c8.75-2.55,17,1.39,17.32,1.55a.52.52,0,0,1,.21.78.72.72,0,0,1-.91.18c-.06,0-8.05-3.81-16.2-1.44A.89.89,0,0,1,112,391.51Z" style="fill:#f0f0f0"></path><path d="M112.5,386.42A.68.68,0,0,1,112,386a.55.55,0,0,1,.4-.72c8.2-2.5,17.1,1.54,17.44,1.72a.52.52,0,0,1,.22.77.71.71,0,0,1-.9.2c-.07,0-8.7-3.94-16.32-1.62A.77.77,0,0,1,112.5,386.42Z" style="fill:#ebebeb"></path><path d="M136.54,163.83c-6.32,10.32-15.56,17.76-16,53.45-.49,36.24-.27,56.49-.5,60.85s-2.08,11.84-4.85,33.32-1.06,46.71-1.06,46.71S116.27,362.1,125,363c8,.81,13.12-1.76,13.12-1.76s11.48-41.72,14.77-54.63,13.4-62.76,13.4-62.76l4.61,34.66s-3,12.73,0,31.66,7.77,37.44,7.77,37.44,4,1.25,12.52,1.3a31.87,31.87,0,0,0,12.27-2.47s5-55.27,5.43-76.66-.2-80.23-7.69-105.94Z" style="fill:#455a64"></path><path d="M154.7,284.54s-3.37-4.78-11.85-5.89-13,3.18-13,3.18S145.67,280.52,154.7,284.54Zm-25.84.44c10.92,2.22,15.92,1.89,20.94,1C149.8,286,134.08,283.87,128.86,285Z" style="fill:#b16668"></path><path d="M187.16,275.68a113.72,113.72,0,0,1,21.58-.36c0-.81.06-1.59.08-2.34C201.49,272.1,190.26,274.07,187.16,275.68Z" style="fill:#b16668"></path><path d="M208.53,280.52c0-.74.06-1.46.09-2.17-1.72-.07-9-.31-16.31.11C196.72,279.65,206.64,280.39,208.53,280.52Z" style="fill:#b16668"></path><path d="M123.56,291.06c2.41-10,3.8-30.22,4.07-46.79.09-5,.17-10.19.33-15.69.6-21.58,2.81-45.71,14.66-61.1l.92.63c-8,10.35-11.5,24.79-13.14,39.72,11.5-1.24,14.21-11.9,17.91-26.57.5-2,1-4.08,1.59-6.21l1.1.26c-.56,2.12-1.08,4.19-1.59,6.19-3.69,14.65-6.61,26.25-19.13,27.45-.68,6.57-1,13.23-1.19,19.66-.15,5.49-.24,10.67-.32,15.67-.28,16.64-1.67,36.94-4.1,47-.27,1.12-.57,2.3-.87,3.54-3.22,12.89-8,32.22-6.45,66a12.05,12.05,0,0,1-1.17-.7c-1.49-33.51,3.31-52.74,6.51-65.59C123,293.36,123.29,292.18,123.56,291.06Z" style="fill:#37474f"></path><path d="M166.26,243.84l8-41s15.17-.77,23.74-8.94c-1.73,7.09-13.88,12.88-19.36,14l-1.52,7.22c.19,3.85.41,7.9.63,12.08,1.24,23,2.29,46.82,1.17,52.21-2.17,10.46-1.3,20.45.39,34,1.52,12.24,4,27.4,5.55,35.15l-1.14-.12c-1.54-7.67-3.62-21.19-5.69-34.94s-2.77-23.38-.22-34.36c1.21-5.22,0-30-1.19-51.9q-.21-4-.42-7.79l-5.35,25.42.07,33.59Z" style="fill:#37474f"></path></g><g id="freepik--Top--inject-129"><path d="M263.37,127.09c-3.53,2.07-4.08,4-7.94,11.74-4.22,8.51-9.4,13.67-11.89,14.91s-9.21,0-20.44-6c-13.65-7.29-27-15.61-27-15.61L188.78,100c2.86.54,7.15.89,12.41,5,10.85,8.46,35.71,26,35.71,26s2.09-1.8,4.43-3.85,4.54-3.32,4.26-4.75Z" style="fill:#b16668"></path><path d="M236.9,131c-3.39,2.79-6,6.32-6.36,10.42-.9-3.64,1.27-9.37,4.72-11.6Z" style="fill:#9a4a4d"></path><path d="M254.54,128.25c-5.83-1.35-8-4.62-9.61-6.71s-3.19-3.76-4.88-4.12-4.89-.9-7-2.11a2.39,2.39,0,0,1,.43-4.51c2.2-.7,4.12.4,6.39,1.12S249.4,113,251.52,109s2.18-8,2.42-11.54-.08-6.61,2.2-7.1,2.26,1.84,2.3,4.58-.24,8.31-.1,9.58,1.14,2.18,1.85.88A26.64,26.64,0,0,0,262,98.91c.63-3,1.28-6,3.44-5.61s1.72,2.91,1.34,5.15-1.44,6.8-1.68,8,0,2.86,1.4.92A38.46,38.46,0,0,0,269.6,102c.91-1.69,1.73-3.81,3.56-3s1.75,3,.76,5.06a57.25,57.25,0,0,1-4.11,6.49c-1.06,1.56-2.2,4.4.26,2.94s3.42-2.29,4.55-2.81,2.84.69,1.63,2.48-3.85,3.33-4.57,4.38A22.59,22.59,0,0,1,269,121c-1,1-2,3.58-4.14,5.08S260.38,129.59,254.54,128.25Z" style="fill:#b16668"></path><path d="M255.38,96.8c-.58-1.52-.15-2.33.81-2.3s2.23-.43,2.18-1.76c.05.66.06,1.4.07,2.18,0,2-.1,5.37-.13,7.61h0C258.36,99.33,256,98.33,255.38,96.8Z" style="fill:#9a4a4d"></path><path d="M265.63,108.25h0c-.31.21-1.55.52-1.62-1.32s-.12-4.7-.78-6.32a4.9,4.9,0,0,1-.21-3.44c.18-.43.55.14,1.75.31a2.17,2.17,0,0,0,2.34-1.74,16.44,16.44,0,0,1-.31,2.71c-.38,2.25-1.44,6.8-1.68,8C264.93,107.37,265,108.5,265.63,108.25Z" style="fill:#9a4a4d"></path><path d="M269.57,107.86c-.05-.47-1.25-1.48-.93-1.91s.93,0,1.18-.35.09-1.94.27-2.85.62-1,1.44-.15,2.7.15,3-.53a7,7,0,0,1-.65,2.05,57.25,57.25,0,0,1-4.11,6.49c-.72,1.07-1.48,2.72-1.11,3.2h0c-.88-.48-1.46-2.56-.83-3.31S269.62,108.33,269.57,107.86Z" style="fill:#9a4a4d"></path><path d="M235.1,116.2c3.3.86,5.36-.19,7.69,1s5.42,4.36,9.22,6.76,8,2.85,9.76,2.12,6.51-4.6,4.35-6.32-5-4.52-5.69-6.58c2,2.8,5.68,5.89,7,6.34a1.69,1.69,0,0,0,2.33-1.29c0-.81-.78-1.66-.51-1.92s1,.09,1.52-.14,1.88-1.29,1.85-2.23.41-1.8,1-1.3,1.57,1.29,2.42.93c-1.29,1.64-3.63,3-4.3,4A22.59,22.59,0,0,1,269,121c-1,1-2,3.58-4.14,5.08s-4.5,3.47-10.34,2.13-8-4.62-9.61-6.71-3.19-3.76-4.88-4.12A43.25,43.25,0,0,1,235.1,116.2Z" style="fill:#9a4a4d"></path><path d="M252.32,113.35a3.9,3.9,0,0,1,1.07.83c.36.35.72.69,1.05,1.06a15.38,15.38,0,0,1,1.83,2.57,14.92,14.92,0,0,1,1.91,5.88,12.92,12.92,0,0,1-.16,3.62c-.09.43-.83.24-.75-.2a13.21,13.21,0,0,0-1-7.74,17.13,17.13,0,0,0-1.78-3.08c-.34-.46-.69-.93-1-1.38a9.45,9.45,0,0,1-1.17-1.44S252.26,113.33,252.32,113.35Z" style="fill:#9a4a4d"></path><path d="M125,183.81c3.93-12.2,12.4-20.65,11.78-26.59-.94-9.13-7.74-21.34-7.9-27.64-.56-22.39,5.77-26.37,12-28.12s19.37-4.06,19.37-4.06c3.76-.06,18.77.65,18.77.65l9.83,2a67.78,67.78,0,0,1,13.69,14.13c7.08,9.57,9.59,24.89-1.05,33.09a83.5,83.5,0,0,0-.56,8.75c.33,5.68,4,18.72,4.75,30.13C189.22,200.2,142.83,199,125,183.81Z" style="fill:#BA68C8"></path><g style="opacity:0.4"><path d="M125,183.81c3.93-12.2,12.4-20.65,11.78-26.59-.94-9.13-7.74-21.34-7.9-27.64-.56-22.39,5.77-26.37,12-28.12s19.37-4.06,19.37-4.06c3.76-.06,18.77.65,18.77.65l9.83,2a67.78,67.78,0,0,1,13.69,14.13c7.08,9.57,9.59,24.89-1.05,33.09a83.5,83.5,0,0,0-.56,8.75c.33,5.68,4,18.72,4.75,30.13C189.22,200.2,142.83,199,125,183.81Z" style="fill:#fff"></path></g><path d="M101.41,165.68c-2-4.3,2.79-15.2,7-23.76,4.9-10,11.58-24.83,14.89-29.92,2.74-4.23,6.7-7.81,17.53-10.37A30.75,30.75,0,0,1,142,130.57l-18.7,31.64Z" style="fill:#b16668"></path><path d="M109,155.32c4.11-3.33,8.76-6,20.72-4l-6.42,10.86-15.81,2.5Z" style="fill:#9a4a4d"></path><path d="M158.32,167.62c0,.22-6.47,2.07-13,3.45s-19.74,4.3-30.81,2.52c-5.1-.82-11.21-4-13.12-7.91-1.09-2.24,2-9.37,11.41-11.68s15-.49,22.91.11c11.1.83,13.24.87,13.69-2.16Z" style="fill:#b16668"></path><path d="M139.67,171.8c-.1.17-.21.33-.32.49,2.33-.44,4.37-.88,6-1.22,6.51-1.38,13-3.23,13-3.45L149.42,152h0a13.74,13.74,0,0,1-.76,4.21,32,32,0,0,1-2.67,5.4C144,165.14,142.05,167.91,139.67,171.8Z" style="fill:#9a4a4d"></path><path d="M162,159.12a6,6,0,0,1-.25-.58c-.66-1.7-.7-3.59-1.37-5.28a12.54,12.54,0,0,0-4.82-5.32,17.92,17.92,0,0,1-3.62-2.91,13.55,13.55,0,0,0-2.81-2.9,8.67,8.67,0,0,0-3.9-1.41,3.48,3.48,0,0,0-2,.28c-.73.4-.53.8-.18,1.4s.74,1.21,1.14,1.81a45.7,45.7,0,0,0,3.11,4.21,11.9,11.9,0,0,1,2.34,4,8.49,8.49,0,0,1-.18,4.44,23.7,23.7,0,0,1-1.7,4.62c-.57,1.16-1.24,2.27-1.9,3.38-2.13,3.55-4.26,7.09-6.47,10.59a1.18,1.18,0,0,0-.26.9c.17.65,1.29.76,1.84.76a3.85,3.85,0,0,0,2.32-.94l.16-.13c2.22-1.89,7.65-10,7.65-10s-1.92,6.44-3.47,10.77-2.87,7.59-3.16,8.53,3,1.61,4.9-1.33,5.52-12.55,5.52-12.55.53,5.36.87,8.84.58,8.12.81,9.34,2.84.43,3.53-2.28.26-10.31.26-10.31,2,5.83,2.54,6.53,2.71,1.32,3.25-1.76c.37-2.07-.28-3.78-1.78-8.76-.28-.95-.52-1.91-.71-2.89a10.83,10.83,0,0,1,0-2.9,14.35,14.35,0,0,0-.77-6.37C162.59,160.34,162.25,159.74,162,159.12Z" style="fill:#b16668"></path><path d="M152.86,157.4c2.47,2.78,6.15,2.76,6.92,2.18C158.6,161.63,153.78,160.94,152.86,157.4Z" style="fill:#9a4a4d"></path><path d="M165.46,183.52c-.47.27-1.4,0-1.89-1s-1.43-4-1.85-5.45-1.82-6.31-1.82-6.31l.41,6.37s2,5.83,2.54,6.53A1.66,1.66,0,0,0,165.46,183.52Z" style="fill:#9a4a4d"></path><g id="freepik--Head--inject-129"><path d="M145.86,34.51l-.25.2c-2.29,1.89-3.84,3.82-6.82,4.53s-5.78,1.66-7.94,3.82A9.4,9.4,0,0,0,128,50c.08,1.15.67,1.54,1,2.51a4.86,4.86,0,0,1-.64,3.81,17.28,17.28,0,0,0-2,4.11c-.57,2.5.79,5.07,2.55,7,1.06,1.12,2.32,2.18,2.74,3.67.56,2-.53,4-.47,6.06.09,3.56,3.72,6.17,7.26,6.55,2,.22,4.29,0,5.85,1.3,1.17,1,1.6,2.62,2.68,3.71a7,7,0,0,0,4,1.7,14.87,14.87,0,0,0,7.34-.62,10,10,0,0,0,5.5-4.76c1-2,1.17-4.38,2.24-6.37,2-3.75,6.75-5.33,9-8.94a8.57,8.57,0,0,0,.68-7.57c-.78-2-2.29-3.64-2.62-5.72-.42-2.67,1.21-5.22,1.51-7.9a8.27,8.27,0,0,0-3.1-7.32c-2-1.55-4.62-2.09-6.7-3.54-1.26-.88-2.28-2.07-3.48-3A12.9,12.9,0,0,0,145.86,34.51Z" style="fill:#263238"></path><path d="M150,37.88a11.21,11.21,0,0,0-4.25,7.89,6.12,6.12,0,0,0,.31,2.85,5.34,5.34,0,0,0,5.34,3,9.82,9.82,0,0,0,5.79-2.79A13.62,13.62,0,0,0,161,43.17c.45-1.33,1.13-3.79.5-5.17C159.75,34.07,152.46,36,150,37.88Z" style="fill:#BA68C8"></path><path d="M155,36.27a12.85,12.85,0,0,1,7.34-3.12c2.6-.22,4.13.05,6.67-.54s4.62-1.84,7-2.43c5.31-1.31,11.1.95,14.85,4.93,1.66,1.76,3.13,3.93,5.43,4.66a24.54,24.54,0,0,0,3.54.51c3.72.6,6.78,3.56,8.25,7A19.46,19.46,0,0,1,209.39,56c-.14,2.65-1.62,4.9-2,7.43s1.77,5.35,2.1,8c.35,2.81-.6,6-3.11,7.35a10.88,10.88,0,0,0-2-7.33,14.18,14.18,0,0,1-3.88,10.49A11.77,11.77,0,0,1,190,85.25a32.15,32.15,0,0,0-4.37-1c-2.95-.18-5.59,1.65-8.07,3.25-3.07,2-6,2.9-9.63,2s-7.64-1.83-10.67-4.15a43.56,43.56,0,0,1-8.2-7.79c-4.9-6.38-5.69-14.1-4.18-21.8a23.2,23.2,0,0,1,2.74-7.8,14.74,14.74,0,0,1,2.48-3c.21-.18,2.14-1.5,2.16-.94A10.66,10.66,0,0,1,155,36.27Z" style="fill:#263238"></path><path d="M150.61,64.2c3.24-.79,5.71.69,7,4.14,1.09,3,4.25,2.39,4.08-2.1,7.78-5.74.23-11,6.76-16.66,4.08-3.54,11.57-1.52,14.32,1.36a7.52,7.52,0,0,1,9.08-2.38c3.07,1.52,4.87,3.7,5.85,8.34,1,4.83-.74,5.5-.37,8.87A38.93,38.93,0,0,1,198,73c-.3,11-4.38,16.87-8.08,19a18.86,18.86,0,0,1-11.48,1.94l-.27,6.14s6.24,10.94,5.22,18.66A94,94,0,0,1,165.06,109c-9.2-6.34-9.53-10.31-9.53-10.31l1.67-20h0c-.93,1.66-5.52,3.2-8.73-.18C144.4,74.27,144.89,65.6,150.61,64.2Z" style="fill:#b16668"></path><path d="M195.84,63.28l-4.73-2.5a2.57,2.57,0,0,1,3.54-1.18A2.81,2.81,0,0,1,195.84,63.28Z" style="fill:#263238"></path><path d="M177.77,60.43,173,62.77a2.57,2.57,0,0,1,1.14-3.55A2.82,2.82,0,0,1,177.77,60.43Z" style="fill:#263238"></path><path d="M177,78.07l7.11,3.29a3.93,3.93,0,0,1-5.53,1.73C176.67,82.11,176.18,80.08,177,78.07Z" style="fill:#9a4a4d"></path><path d="M180.7,83.57a4.11,4.11,0,0,0-3.65-4.13h-.38a3.44,3.44,0,0,0,1.93,3.65A4.47,4.47,0,0,0,180.7,83.57Z" style="fill:#ffa8a7"></path><polygon points="184.56 63.89 185.16 77.68 192.18 75.75 184.56 63.89" style="fill:#9a4a4d"></polygon><path d="M179.68,66.59a2.24,2.24,0,1,1-2.08-2.39A2.23,2.23,0,0,1,179.68,66.59Z" style="fill:#263238"></path><path d="M195.05,66.77A2.24,2.24,0,1,1,193,64.39,2.24,2.24,0,0,1,195.05,66.77Z" style="fill:#263238"></path><path d="M178.48,93.88c-7-1.89-14.79-3.4-18.41-13.75a18.1,18.1,0,0,0,6.66,12,28.79,28.79,0,0,0,11.41,5.16Z" style="fill:#9a4a4d"></path></g></g></g></g></svg>
